<?xml version="1.0" encoding="UTF-8"?>
<svg xmlns="http://www.w3.org/2000/svg" viewBox="0 0 156.93 471.94">
  <g isolation="isolate">
    <g id="Layer_1" data-name="Layer 1">
      <g id="body">
        <path d="m100.96,461.58c0,5.73-20.67,10.36-46.17,10.36s-46.17-4.64-46.17-10.36,20.67-10.36,46.17-10.36,46.17,4.64,46.17,10.36Z" fill="#a8a9ac" mix-blend-mode="multiply"/>
        <g>
          <path d="m108.63,118.36s-24.86,7.82-50.77,7.82-45.34-8.06-45.34-8.06c0,0,10.07-8.53,3.55-46.25-4.47-25.89,93.81-25.5,91.25,0-3.64,36.3,1.31,46.49,1.31,46.49Z" fill="#603913"/>
          <g>
            <rect x="42.62" y="448.61" width="7.82" height="6.32" fill="#891717"/>
            <path d="m40.01,436.44c-.29,6.16-5.64,12.09-9.51,18-1.91,2.91-3.97,4.89-5.87,8.31-2.12,3.82,12.69,4.86,15.19,2.25,2.57-2.69,5.94-10.47,9.17-15.62.26-.41,1.2,5.92,1.45,5.55,1.51-2.21,1.63-11.45,1.96-14.11.45-3.6,0-7.46-.83-11.17-.26-1.19-11.47,4.91-11.56,6.79Z" fill="#f15a29"/>
            <path d="m49.74,421.05c1.42,6.43,3.57,11.75.01,16.96-3.45,5.06-7.68,14.49-10.45,17.39-2.49,2.61-11.31,4.51-9.49.53,2.85-6.22,9.73-19.73,10.2-29.69.47-9.95-10.67-102.16-10.67-102.16h25.45s-6.87,88.71-5.05,96.96Z" fill="#fab38e"/>
          </g>
          <g>
            <rect x="62.62" y="448.61" width="7.82" height="6.32" fill="#891717"/>
            <path d="m73.05,436.44c.29,6.16,5.64,12.09,9.51,18,1.91,2.91,3.97,4.89,5.87,8.31,2.12,3.82-12.7,4.86-15.19,2.25-2.57-2.69-5.94-10.47-9.17-15.62-.26-.41-1.2,5.92-1.45,5.55-1.51-2.21-1.64-11.45-1.96-14.11-.44-3.6,0-7.46.83-11.17.26-1.19,11.47,4.91,11.56,6.79Z" fill="#f15a29"/>
            <path d="m63.32,421.05c-1.42,6.43-3.57,11.75-.02,16.96,3.45,5.06,7.68,14.49,10.45,17.39,2.5,2.61,11.31,4.51,9.49.53-2.85-6.22-9.73-19.73-10.2-29.69-.47-9.95,10.67-102.16,10.67-102.16h-25.45s6.87,88.71,5.05,96.96Z" fill="#fab38e"/>
          </g>
          <path d="m98.37,198.09c3.82-2.28,3.52-2.53,6.98-5.07,2.01-1.48-6.3-37.06-9-48.91-2.7-11.85-13.47-17.65-18.78-19-5.31-1.35,5.21,34.96,5.21,34.96,0,0,2.68,19.31,5.38,31.02,1.2,5.23,9.36,7.51,10.21,7Z" fill="#bf333f"/>
          <path d="m94.96,196.83c4.44-2.31,8.56-5.31,12.5-8.59,4.4,4.42,7.66,7.86,7.66,7.86,0,0,11.46,17.89,19.24,26.71.31.35,10.9,2.24,13.25,4.84,2.15,2.38,1.66,10.43,7.99,12.44,2.38.76.86,2.31.67,2.33-3.41.28-5.78-.35-9.79-2.07-4.02-1.72-15.43-9.15-15.89-9.63-9.06-9.36-24.62-23.47-35.62-33.89Z" fill="#fab38e"/>
          <path d="m103.76,182.42c6.88,6.86,12.32,12.83,11.36,13.68-2.4,2.14-8.54,7.96-10.56,9.42-.95.69-6.98-5.15-16.41-14.43,5.73-3.51,10.99-7.63,15.61-8.67Z" fill="#2f9d9d"/>
          <path d="m115.46,195.99c-.19,1.69-8.74,10.65-11.56,10.45-1.42-.1-7.82-5.76-8.51-6.72-.54-.75-.14-1.42-.14-1.42,0,0,.96,1,1.03.95,3.11-2.14,9.8-7.2,13.53-10.32.12-.1-.87-1.21-.87-1.21,0,0,1.21-.05,1.97.53.75.58,4.71,6.25,4.54,7.74Z" fill="#fff"/>
          <path d="m84.47,339.27H28.4s-13.89-72.06-8.54-106.4c2.88-18.5,70.75-19.31,72.06.45,3.81,57.44-7.45,105.95-7.45,105.95Z" fill="#003d5b"/>
          <path d="m8.64,241.14c-.1.46,4.27,10.11,3.79,13.59-.15,1.1-.52,3.31-.16,5.21.25,1.33-2.74,2.93-3.39-.15-.3-1.42-.34-3.92-.96-6.16-.16-.58-1.52.14-1.8,2.52-.1.87-1.19,6,.87,12.33.77,2.38-1.38,2.04-1.5,1.9-2.22-2.61-3.08-4.9-4.03-9.16-.95-4.27-1.56-17.87-1.44-18.53,3.2-17.66,6.54-50.61,8.95-62.46,2.41-11.85,8.81-9.43,13.54-10.78,4.73-1.35-3.37,40.49-3.37,40.49,0,0-7.85,19.74-10.49,31.21Z" fill="#fab38e"/>
          <path d="m81.69,126.18c-7.88-3.25-21.16-6.4-21.16-6.4,0,0-22.19,3.55-27.24,5.33-5.06,1.78-6.75,16.15-6.08,33.96.71,18.89,7.57,27.38,7.8,34.82.16,5.2-11.03,16.46-15.16,38.97,11.38,5.53,67.44,3.61,73.66-.26-1.88-11.13-6.4-18.2-8-28.44-2.12-13.6-1.05-28.92-1.05-28.92,0,0,5.55-7.39,5.67-13.73.1-5.79-4.83-9.43-5.67-19.46-.74-8.83.68-14.45-2.78-15.88Z" fill="#bf333f"/>
          <polygon points="51.13 122.5 60.87 142.06 69.94 122.5 69.94 108.16 51.13 108.16 51.13 122.5" fill="#fab38e"/>
          <path d="m60.54,119.78c5.54,0,9.41-7.2,9.41-7.2v-4.42h-18.81v5.81s3.86,5.81,9.41,5.81Z" fill="#d4b2a2" mix-blend-mode="multiply"/>
          <path d="m99.86,78.08c-5.73,24.63-30.2,38.52-39.4,38.54-9.62.02-30.48-11.85-38.38-38.17-3.91-13.01,1.02-19.18,1.02-34.44,0-20.9,16.46-35.08,37.03-35.08,21.68,0,39.69,12.73,39.73,35.08.02,13.96,1.44,27.88,0,34.08Z" fill="#fab38e"/>
          <path d="m98.44,61.31s2.61-5.45,9.24-2.37c4.35,2.02,2.48,16.95-2.13,18.75-5.03,1.96-7.11-.5-7.11-.5" fill="#fab38e"/>
          <path d="m24.28,61.31s-2.61-5.45-9.24-2.37c-4.35,2.02-2.48,16.95,2.13,18.75,5.03,1.96,7.11-.5,7.11-.5" fill="#fab38e"/>
          <path d="m36.71,58.42s.14-.21.38-.57c.22-.36.67-.88,1.21-1.4,1.09-1.08,2.83-2.07,4.69-2.48,2.52-.46,4.78.35,5.18.75.4.4-.02,2.98-.47,2.73-1.13-.65-3.87-1.11-4.66-1.11-1.57-.09-3.17.43-4.33.99-.58.3-1.03.58-1.35.88-.32.27-.5.43-.5.43-.05.05-.13.04-.17-.03-.03-.05-.03-.13,0-.18Z" fill="#603913"/>
          <path d="m85.54,57.77s-.14-.21-.38-.57c-.22-.36-.67-.88-1.21-1.4-1.09-1.08-2.83-2.07-4.69-2.48-2.51-.46-4.78.35-5.18.75-.4.4.02,2.98.47,2.73,1.13-.65,3.88-1.12,4.66-1.11,1.57-.09,3.17.44,4.34.99.58.3,1.02.58,1.35.88.31.27.5.43.5.43.06.05.14.04.17-.03.03-.05.02-.13,0-.18Z" fill="#603913"/>
          <g>
            <path d="m81.1,70.22c0,.91-.85,1.65-1.9,1.65h0c-1.05,0-1.9-.74-1.9-1.65v-4.53c0-.91.85-1.65,1.9-1.65h0c1.05,0,1.9.74,1.9,1.65v4.53Z" fill="#3c2415"/>
            <path d="m80.42,66.9c0,.58-.27,1.05-.61,1.05s-.61-.47-.61-1.05.28-1.05.61-1.05.61.47.61,1.05Z" fill="#fff"/>
          </g>
          <g>
            <path d="m46.09,70.22c0,.91-.85,1.65-1.9,1.65h0c-1.05,0-1.9-.74-1.9-1.65v-4.53c0-.91.85-1.65,1.9-1.65h0c1.05,0,1.9.74,1.9,1.65v4.53Z" fill="#3c2415"/>
            <path d="m45.64,66.9c0,.58-.27,1.05-.61,1.05s-.61-.47-.61-1.05.27-1.05.61-1.05.61.47.61,1.05Z" fill="#fff"/>
          </g>
          <path d="m64.5,78.83s-1.94-.65-3.77-.65-2.86.65-2.86.65c0,0,1.49-2.43,3.32-2.43s3.32,2.43,3.32,2.43Z" fill="#d4b2a2" mix-blend-mode="multiply"/>
          <g>
            <path d="m75.8,75.93c-.34,0-.34.4,0,.4s.35-.4,0-.4Z" fill="#d4b2a2" mix-blend-mode="multiply"/>
            <path d="m83.34,76.92c-.35,0-.35.4,0,.4s.34-.4,0-.4Z" fill="#d4b2a2" mix-blend-mode="multiply"/>
            <path d="m77.72,76.92c-.35,0-.35.4,0,.4s.35-.4,0-.4Z" fill="#d4b2a2" mix-blend-mode="multiply"/>
            <path d="m77.49,75.05c-.69,0-.69.79,0,.79s.69-.79,0-.79Z" fill="#d4b2a2" mix-blend-mode="multiply"/>
            <path d="m76.72,76.48c-.17,0-.17.2,0,.2s.18-.2,0-.2Z" fill="#d4b2a2" mix-blend-mode="multiply"/>
            <path d="m83.08,75.74c-.18,0-.18.2,0,.2s.18-.2,0-.2Z" fill="#d4b2a2" mix-blend-mode="multiply"/>
            <path d="m81.08,74.61c-.17,0-.17.2,0,.2s.18-.2,0-.2Z" fill="#d4b2a2" mix-blend-mode="multiply"/>
            <path d="m82.33,77.63c-.17,0-.17.2,0,.2s.18-.2,0-.2Z" fill="#d4b2a2" mix-blend-mode="multiply"/>
            <path d="m80.95,76.82c-.18,0-.18.2,0,.2s.18-.2,0-.2Z" fill="#d4b2a2" mix-blend-mode="multiply"/>
            <path d="m78.68,76.22c-.46,0-.46.53,0,.53s.46-.53,0-.53Z" fill="#d4b2a2" mix-blend-mode="multiply"/>
            <path d="m79.92,75.45c-.59,0-.59.68,0,.68s.59-.68,0-.68Z" fill="#d4b2a2" mix-blend-mode="multiply"/>
            <path d="m79.65,74.5c-.36,0-.36.42,0,.42s.36-.42,0-.42Z" fill="#d4b2a2" mix-blend-mode="multiply"/>
            <path d="m82.66,74.18h-.04c-.56,0-.56.64,0,.64h.04c.56,0,.56-.64,0-.64Z" fill="#d4b2a2" mix-blend-mode="multiply"/>
            <path d="m84.1,75.55c-.49,0-.49.57,0,.57s.49-.57,0-.57Z" fill="#d4b2a2" mix-blend-mode="multiply"/>
            <path d="m81.83,75.56s-.04,0-.06,0c-.37-.05-.64.15-.58.43,0,.01,0,.03.01.04.06.29.6.35.85.17.25-.18.16-.58-.23-.63Z" fill="#d4b2a2" mix-blend-mode="multiply"/>
            <path d="m79.85,77.26c-.82,0-.82.94,0,.94s.82-.94,0-.94Z" fill="#d4b2a2" mix-blend-mode="multiply"/>
          </g>
          <g>
            <path d="m39.67,76.06c-.35,0-.35.39,0,.39s.35-.39,0-.39Z" fill="#d4b2a2" mix-blend-mode="multiply"/>
            <path d="m47.2,77.05c-.35,0-.35.4,0,.4s.35-.4,0-.4Z" fill="#d4b2a2" mix-blend-mode="multiply"/>
            <path d="m41.59,77.05c-.34,0-.34.4,0,.4s.35-.4,0-.4Z" fill="#d4b2a2" mix-blend-mode="multiply"/>
            <path d="m41.35,75.18c-.69,0-.69.79,0,.79s.69-.79,0-.79Z" fill="#d4b2a2" mix-blend-mode="multiply"/>
            <path d="m40.58,76.61c-.18,0-.18.2,0,.2s.18-.2,0-.2Z" fill="#d4b2a2" mix-blend-mode="multiply"/>
            <path d="m46.94,75.87c-.17,0-.17.21,0,.21s.18-.21,0-.21Z" fill="#d4b2a2" mix-blend-mode="multiply"/>
            <path d="m44.94,74.74c-.18,0-.18.2,0,.2s.18-.2,0-.2Z" fill="#d4b2a2" mix-blend-mode="multiply"/>
            <path d="m46.19,77.76c-.18,0-.18.2,0,.2s.18-.2,0-.2Z" fill="#d4b2a2" mix-blend-mode="multiply"/>
            <path d="m44.81,76.95c-.18,0-.18.2,0,.2s.18-.2,0-.2Z" fill="#d4b2a2" mix-blend-mode="multiply"/>
            <path d="m42.54,76.35c-.46,0-.46.53,0,.53s.46-.53,0-.53Z" fill="#d4b2a2" mix-blend-mode="multiply"/>
            <path d="m43.79,75.58c-.59,0-.59.68,0,.68s.59-.68,0-.68Z" fill="#d4b2a2" mix-blend-mode="multiply"/>
            <path d="m43.52,74.63c-.36,0-.36.42,0,.42s.36-.42,0-.42Z" fill="#d4b2a2" mix-blend-mode="multiply"/>
            <path d="m46.52,74.31h-.04c-.56,0-.56.64,0,.64h.04c.56,0,.56-.64,0-.64Z" fill="#d4b2a2" mix-blend-mode="multiply"/>
            <path d="m47.97,75.68c-.49,0-.49.57,0,.57s.49-.57,0-.57Z" fill="#d4b2a2" mix-blend-mode="multiply"/>
            <path d="m45.7,75.69s-.03,0-.06,0c-.37-.05-.64.15-.58.43,0,.01,0,.03.01.04.06.29.6.35.85.17.25-.18.16-.58-.22-.63Z" fill="#d4b2a2" mix-blend-mode="multiply"/>
            <path d="m43.72,77.39c-.82,0-.82.94,0,.94s.81-.94,0-.94Z" fill="#d4b2a2" mix-blend-mode="multiply"/>
          </g>
          <g>
            <path d="m105.27,79.1c0,1.74-1.41,3.15-3.15,3.15s-3.15-1.41-3.15-3.15,1.41-3.15,3.15-3.15,3.15,1.41,3.15,3.15Z" fill="#00aeef"/>
            <path d="m102.59,80.98c-1.74,0-3.15-1.41-3.15-3.15,0-.16.02-.31.05-.46-.33.5-.52,1.09-.52,1.73,0,1.74,1.41,3.15,3.15,3.15,1.58,0,2.88-1.17,3.1-2.69-.56.86-1.53,1.42-2.63,1.42Z" fill="#008ec3"/>
            <path d="m103.68,77.83c0,.8-.7,1.44-1.56,1.44s-1.56-.65-1.56-1.44.7-1.44,1.56-1.44,1.56.64,1.56,1.44Z" fill="#fff"/>
          </g>
          <path d="m103.26,74.65s.7-2.07.2-3.8c-.46-1.58-2.12-2.79-2.02-3.45.27-1.76.77-4.11,1.69-5.64.88-1.48,3.34-1.49,3.61-1.12.77,1.07,1.93,3.11,1.9,7.17-.48-2.57-1.07-4.59-2.55-6.06-.23-.22-1.55.05-2.4,1.49-.7,1.19-1.33,2.83-1.78,4.17-.22.65,2.75.79,3.13,2.38.41,1.71-1.77,4.85-1.77,4.85Z" fill="#d4b2a2" mix-blend-mode="multiply"/>
          <g>
            <path d="m17.87,79.1c0,1.74,1.41,3.15,3.15,3.15s3.15-1.41,3.15-3.15-1.41-3.15-3.15-3.15-3.15,1.41-3.15,3.15Z" fill="#00aeef"/>
            <path d="m20.55,80.98c1.74,0,3.15-1.41,3.15-3.15,0-.16-.02-.31-.04-.46.33.5.52,1.09.52,1.73,0,1.74-1.41,3.15-3.15,3.15-1.58,0-2.88-1.17-3.1-2.69.56.86,1.52,1.42,2.63,1.42Z" fill="#008ec3"/>
            <path d="m19.46,77.83c0,.8.7,1.44,1.56,1.44s1.56-.65,1.56-1.44-.7-1.44-1.56-1.44-1.56.64-1.56,1.44Z" fill="#fff"/>
          </g>
          <path d="m19.88,74.65s-.69-2.07-.2-3.8c.46-1.58,2.12-2.79,2.02-3.45-.26-1.76-.77-4.11-1.68-5.64-.88-1.48-3.35-1.49-3.62-1.12-.77,1.07-1.93,3.11-1.89,7.17.47-2.57,1.07-4.59,2.55-6.06.23-.22,1.55.05,2.4,1.49.7,1.19,1.33,2.83,1.78,4.17.22.65-2.75.79-3.13,2.38-.41,1.71,1.77,4.85,1.77,4.85Z" fill="#d4b2a2" mix-blend-mode="multiply"/>
          <path d="m101.57,59.45c2.49-2.85,6.11-.52,6.11-.52,0,0,3.91-15.7,1.07-27.09C103.33,10.16,80.78.79,69.16.08c-11.62-.71-37.33,3.15-38.99,16.9-13.27-4.1-17.05,10-17.59,17.58-.54,7.59,2.46,24.37,2.46,24.37,0,0,2.62-1.43,3.39-.93,0,0-1.41,16.5,9.02,23.85-5.21-8.06,5.69-22.04-1.54-37.85,11.5-3.81,24.06,9.41,64.35,5.62,1.66,17.3,6.16,20.06,4.03,28.83,7.58-7.11,4.79-16.15,7.28-18.99Z" fill="#603913"/>
          <polygon points="76.59 122.94 72.63 142.06 66.32 136.13 60.87 144.95 60.87 142.06 69.94 122.5 69.94 119.78 76.59 122.94" fill="#fff"/>
          <polygon points="44.84 122.46 48.27 142.06 54.59 136.13 60.87 144.95 60.87 142.06 51.13 122.5 51.13 120.24 44.84 122.46" fill="#fff"/>
          <path d="m19.13,209.93c-3.14-.7-11.44-2.3-13.81-3.09-2.37-.79,6.49-50.88,9.18-62.73,2.7-11.85,13.47-17.65,18.78-19,5.31-1.35-5.21,34.96-5.21,34.96,0,0-5.81,50.56-8.95,49.86Z" fill="#bf333f"/>
          <path d="m19.42,210.14c-1.48.83-13.75-.89-15.23-3.3-.75-1.21.12-9.71.5-10.83.3-.88,1.08-.94,1.08-.94,0,0-.26,1.37-.17,1.4,3.55,1.28,11.57,3.77,16.27,4.98.15.04.47-1.41.47-1.41,0,0,.75.96.72,1.91-.03.95-2.32,7.47-3.64,8.2Z" fill="#fff"/>
          <path d="m44.84,251.14s2.92,16.38,8.27,28.18c7.12,15.69,17.29,20.26,17.29,20.26l-25.56-48.44Z" fill="#00263e"/>
          <path d="m81.22,58.19c-8.53,0-13.53,1.54-15.53,3.45-1.74-1.18-4.03-1.84-6.08-1.64-1.42.13-2.63.66-3.62,1.48-2.11-1.84-7.06-3.29-15.34-3.29-10.78,0-16.59,2.83-16.59,5.5,0,5.37,1.03,17.85,10.53,17.85s15.44-1.9,19.08-5.65c3.8-3.92,3.64-8.76,3.56-11.37,0-.14,0-.24,0-.37.63-.82,1.52-1.3,2.66-1.41,1.82-.17,3.72.64,4.8,1.57,0,.07,0,.12,0,.2-.08,2.61-.24,7.45,3.56,11.37,3.64,3.75,10.05,5.65,19.07,5.65,9.5,0,10.53-12.48,10.53-17.85,0-2.67-5.82-5.5-16.59-5.5Zm-29.55,15.78c-3.09,3.19-8.85,4.82-17.1,4.82-6.92,0-7.75-10.27-7.77-14.91.68-.86,4.87-2.93,13.84-2.93,10.37,0,13.54,2.29,13.79,2.74,0,.26,0,.57.02.91.07,2.35.2,6.29-2.78,9.37Zm35.61,4.82c-8.25,0-14-1.62-17.1-4.82-2.98-3.08-2.86-7.02-2.79-9.37.01-.34.02-.65,0-.75.28-.61,3.45-2.91,13.82-2.91,8.97,0,13.16,2.07,13.84,2.93-.02,4.64-.85,14.91-7.77,14.91Z" fill="#ef4136"/>
          <path d="m142.27,230.41l7.23,4.73,1.75,3.46s-2.94-1.18-4.34-3.23c-1.39-2.04-4.64-4.97-4.64-4.97Z" fill="#d4b2a2" mix-blend-mode="multiply"/>
          <path d="m52.23,177.78s6-4.79,9.24-4.66c3.24.13,9.8,4.66,9.8,4.66,0,0-3.77-1.89-9.88-1.89s-9.17,1.89-9.17,1.89Z" fill="#95232e"/>
        </g>
      </g>
    </g>
  </g>
</svg>