{
  "accessors": [
    {
      "bufferView": 2,
      "componentType": 5126,
      "count": 65532,
      "max": [
        1.2876700162887573,
        -4.937851905822754,
        0.06849999725818634
      ],
      "min": [
        -1.3656049966812134,
        -5.785470008850098,
        -0.6980730295181274
      ],
      "type": "VEC3"
    },
    {
      "bufferView": 2,
      "byteOffset": 786384,
      "componentType": 5126,
      "count": 65532,
      "max": [
        0.9999889731407166,
        0.9999982714653015,
        0.9999819397926331
      ],
      "min": [
        -0.9999752640724182,
        -0.9999967217445374,
        -0.9999997615814209
      ],
      "type": "VEC3"
    },
    {
      "bufferView": 1,
      "componentType": 5126,
      "count": 65532,
      "max": [
        0.993183970451355,
        0.9983890056610107
      ],
      "min": [
        0.005785999819636345,
        0.0038880000356584787
      ],
      "type": "VEC2"
    },
    {
      "bufferView": 0,
      "componentType": 5125,
      "count": 339819,
      "type": "SCALAR"
    },
    {
      "bufferView": 2,
      "byteOffset": 1572768,
      "componentType": 5126,
      "count": 65532,
      "max": [
        1.1005849838256836,
        -5.006710052490234,
        0.059466999024152756
      ],
      "min": [
        -1.2607380151748657,
        -5.695611000061035,
        -0.8530970215797424
      ],
      "type": "VEC3"
    },
    {
      "bufferView": 2,
      "byteOffset": 2359152,
      "componentType": 5126,
      "count": 65532,
      "max": [
        0.9999921321868896,
        0.9999708533287048,
        0.9999974966049194
      ],
      "min": [
        -0.9999309182167053,
        -0.9999855756759644,
        -0.9999986290931702
      ],
      "type": "VEC3"
    },
    {
      "bufferView": 1,
      "byteOffset": 524256,
      "componentType": 5126,
      "count": 65532,
      "max": [
        0.9947800040245056,
        0.9070829749107361
      ],
      "min": [
        0.06224999949336052,
        0.007918000221252441
      ],
      "type": "VEC2"
    },
    {
      "bufferView": 0,
      "byteOffset": 1359276,
      "componentType": 5125,
      "count": 338328,
      "type": "SCALAR"
    },
    {
      "bufferView": 2,
      "byteOffset": 3145536,
      "componentType": 5126,
      "count": 65532,
      "max": [
        1.2567369937896729,
        -5.047524929046631,
        0.06371600180864334
      ],
      "min": [
        -0.8795139789581299,
        -5.776208877563477,
        -0.7667099833488464
      ],
      "type": "VEC3"
    },
    {
      "bufferView": 2,
      "byteOffset": 3931920,
      "componentType": 5126,
      "count": 65532,
      "max": [
        0.9999359846115112,
        0.9997242093086243,
        0.9999938607215881
      ],
      "min": [
        -0.9999624490737915,
        -0.9999690055847168,
        -0.9999942779541016
      ],
      "type": "VEC3"
    },
    {
      "bufferView": 1,
      "byteOffset": 1048512,
      "componentType": 5126,
      "count": 65532,
      "max": [
        0.9933630228042603,
        0.9934530258178711
      ],
      "min": [
        0.01953900046646595,
        0.0036979999858886003
      ],
      "type": "VEC2"
    },
    {
      "bufferView": 0,
      "byteOffset": 2712588,
      "componentType": 5125,
      "count": 331947,
      "type": "SCALAR"
    },
    {
      "bufferView": 2,
      "byteOffset": 4718304,
      "componentType": 5126,
      "count": 65532,
      "max": [
        1.2215629816055298,
        -5.128035068511963,
        0.06849999725818634
      ],
      "min": [
        -1.354557991027832,
        -5.681245803833008,
        -0.7618839740753174
      ],
      "type": "VEC3"
    },
    {
      "bufferView": 2,
      "byteOffset": 5504688,
      "componentType": 5126,
      "count": 65532,
      "max": [
        0.999131441116333,
        0.9999982118606567,
        0.9999974966049194
      ],
      "min": [
        -0.9999343156814575,
        -0.9999868273735046,
        -0.9999954104423523
      ],
      "type": "VEC3"
    },
    {
      "bufferView": 1,
      "byteOffset": 1572768,
      "componentType": 5126,
      "count": 65532,
      "max": [
        0.9940940141677856,
        0.9994120001792908
      ],
      "min": [
        0.002087000058963895,
        0.007298999931663275
      ],
      "type": "VEC2"
    },
    {
      "bufferView": 0,
      "byteOffset": 4040376,
      "componentType": 5125,
      "count": 304155,
      "type": "SCALAR"
    },
    {
      "bufferView": 2,
      "byteOffset": 6291072,
      "componentType": 5126,
      "count": 65532,
      "max": [
        1.1492969989776611,
        -4.949055194854736,
        0.0672369971871376
      ],
      "min": [
        -1.3636720180511475,
        -5.60662317276001,
        -0.728331983089447
      ],
      "type": "VEC3"
    },
    {
      "bufferView": 2,
      "byteOffset": 7077456,
      "componentType": 5126,
      "count": 65532,
      "max": [
        0.999131441116333,
        0.9999997615814209,
        0.9999894499778748
      ],
      "min": [
        -0.9999473690986633,
        -0.9999703168869019,
        -0.9999709129333496
      ],
      "type": "VEC3"
    },
    {
      "bufferView": 1,
      "byteOffset": 2097024,
      "componentType": 5126,
      "count": 65532,
      "max": [
        0.9933649897575378,
        0.9995009899139404
      ],
      "min": [
        0.0030139998998492956,
        0.03371899947524071
      ],
      "type": "VEC2"
    },
    {
      "bufferView": 0,
      "byteOffset": 5256996,
      "componentType": 5125,
      "count": 290565,
      "type": "SCALAR"
    },
    {
      "bufferView": 2,
      "byteOffset": 7863840,
      "componentType": 5126,
      "count": 65532,
      "max": [
        0.7855380177497864,
        -4.928565979003906,
        -0.07377099990844727
      ],
      "min": [
        -1.3006459474563599,
        -5.437971115112305,
        -0.4996170103549957
      ],
      "type": "VEC3"
    },
    {
      "bufferView": 2,
      "byteOffset": 8650224,
      "componentType": 5126,
      "count": 65532,
      "max": [
        0.9989367723464966,
        0.9999942779541016,
        0.9999966621398926
      ],
      "min": [
        -0.9999473690986633,
        -0.9999580383300781,
        -0.9999845623970032
      ],
      "type": "VEC3"
    },
    {
      "bufferView": 1,
      "byteOffset": 2621280,
      "componentType": 5126,
      "count": 65532,
      "max": [
        0.9958950281143188,
        0.9995110034942627
      ],
      "min": [
        0.0029609999619424343,
        0.0037720000836998224
      ],
      "type": "VEC2"
    },
    {
      "bufferView": 0,
      "byteOffset": 6419256,
      "componentType": 5125,
      "count": 328533,
      "type": "SCALAR"
    },
    {
      "bufferView": 2,
      "byteOffset": 9436608,
      "componentType": 5126,
      "count": 65532,
      "max": [
        1.274891972541809,
        -4.928666114807129,
        0.05327500030398369
      ],
      "min": [
        -1.3654650449752808,
        -5.729712963104248,
        -0.7663350105285645
      ],
      "type": "VEC3"
    },
    {
      "bufferView": 2,
      "byteOffset": 10222992,
      "componentType": 5126,
      "count": 65532,
      "max": [
        0.9999327659606934,
        0.9999982118606567,
        0.9999894499778748
      ],
      "min": [
        -0.999835729598999,
        -0.9999720454216003,
        -0.9999997615814209
      ],
      "type": "VEC3"
    },
    {
      "bufferView": 1,
      "byteOffset": 3145536,
      "componentType": 5126,
      "count": 65532,
      "max": [
        0.994376003742218,
        1.0081709623336792
      ],
      "min": [
        0.00021300000662449747,
        0.006725000217556953
      ],
      "type": "VEC2"
    },
    {
      "bufferView": 0,
      "byteOffset": 7733388,
      "componentType": 5125,
      "count": 242952,
      "type": "SCALAR"
    },
    {
      "bufferView": 2,
      "byteOffset": 11009376,
      "componentType": 5126,
      "count": 65532,
      "max": [
        1.2876700162887573,
        -5.189786911010742,
        0.04872800037264824
      ],
      "min": [
        -1.3363230228424072,
        -5.775211811065674,
        -0.7859079837799072
      ],
      "type": "VEC3"
    },
    {
      "bufferView": 2,
      "byteOffset": 11795760,
      "componentType": 5126,
      "count": 65532,
      "max": [
        0.9999866485595703,
        0.9998900890350342,
        0.9999952912330627
      ],
      "min": [
        -0.9998949766159058,
        -0.9999707937240601,
        -0.9999977946281433
      ],
      "type": "VEC3"
    },
    {
      "bufferView": 1,
      "byteOffset": 3669792,
      "componentType": 5126,
      "count": 65532,
      "max": [
        0.9922999739646912,
        0.9992539882659912
      ],
      "min": [
        0.0028540000785142183,
        0.0035780000034719706
      ],
      "type": "VEC2"
    },
    {
      "bufferView": 0,
      "byteOffset": 8705196,
      "componentType": 5125,
      "count": 298731,
      "type": "SCALAR"
    },
    {
      "bufferView": 2,
      "byteOffset": 12582144,
      "componentType": 5126,
      "count": 65532,
      "max": [
        1.2734119892120361,
        -5.2499871253967285,
        -0.008867999538779259
      ],
      "min": [
        -1.3406070470809937,
        -5.7803239822387695,
        -0.8077239990234375
      ],
      "type": "VEC3"
    },
    {
      "bufferView": 2,
      "byteOffset": 13368528,
      "componentType": 5126,
      "count": 65532,
      "max": [
        0.9999229907989502,
        0.9999936819076538,
        0.9999993443489075
      ],
      "min": [
        -0.9996014833450317,
        -0.999997615814209,
        -0.9999983906745911
      ],
      "type": "VEC3"
    },
    {
      "bufferView": 1,
      "byteOffset": 4194048,
      "componentType": 5126,
      "count": 65532,
      "max": [
        0.9944130182266235,
        0.9987949728965759
      ],
      "min": [
        0.0052709998562932014,
        0.003573999973013997
      ],
      "type": "VEC2"
    },
    {
      "bufferView": 0,
      "byteOffset": 9900120,
      "componentType": 5125,
      "count": 301290,
      "type": "SCALAR"
    },
    {
      "bufferView": 2,
      "byteOffset": 14154912,
      "componentType": 5126,
      "count": 65534,
      "max": [
        1.2873589992523193,
        -5.304019927978516,
        -0.07365600019693375
      ],
      "min": [
        -1.3352659940719604,
        -5.745513916015625,
        -0.8532789945602417
      ],
      "type": "VEC3"
    },
    {
      "bufferView": 2,
      "byteOffset": 14941320,
      "componentType": 5126,
      "count": 65534,
      "max": [
        0.9999527335166931,
        0.9994661808013916,
        0.9997879862785339
      ],
      "min": [
        -0.9997330904006958,
        -0.9999988675117493,
        -0.99998939037323
      ],
      "type": "VEC3"
    },
    {
      "bufferView": 1,
      "byteOffset": 4718304,
      "componentType": 5126,
      "count": 65534,
      "max": [
        0.9879109859466553,
        0.9996230006217957
      ],
      "min": [
        0.002983999904245138,
        0.00445799995213747
      ],
      "type": "VEC2"
    },
    {
      "bufferView": 0,
      "byteOffset": 11105280,
      "componentType": 5125,
      "count": 297162,
      "type": "SCALAR"
    },
    {
      "bufferView": 2,
      "byteOffset": 15727728,
      "componentType": 5126,
      "count": 33593,
      "max": [
        1.2871990203857422,
        -5.399932861328125,
        -0.09553799778223038
      ],
      "min": [
        -1.3319929838180542,
        -5.768190860748291,
        -0.8532530069351196
      ],
      "type": "VEC3"
    },
    {
      "bufferView": 2,
      "byteOffset": 16130844,
      "componentType": 5126,
      "count": 33593,
      "max": [
        0.9995450377464294,
        0.9991626143455505,
        0.9999416470527649
      ],
      "min": [
        -0.9997330904006958,
        -0.9999861121177673,
        -0.9999637603759766
      ],
      "type": "VEC3"
    },
    {
      "bufferView": 1,
      "byteOffset": 5242576,
      "componentType": 5126,
      "count": 33593,
      "max": [
        0.9880890250205994,
        0.9993510246276855
      ],
      "min": [
        0.005111000034958124,
        0.07325500249862671
      ],
      "type": "VEC2"
    },
    {
      "bufferView": 0,
      "byteOffset": 12293928,
      "componentType": 5125,
      "count": 139428,
      "type": "SCALAR"
    }
  ],
  "asset": {
    "extras": {
      "author": "flaviomarialva (https://sketchfab.com/flaviomarialva)",
      "license": "CC-BY-4.0 (http://creativecommons.org/licenses/by/4.0/)",
      "source": "https://sketchfab.com/3d-models/samanta-03-7a5bae6adb274523994d488b2e4f19e1",
      "title": "Samanta 03"
    },
    "generator": "Sketchfab-12.66.0",
    "version": "2.0"
  },
  "bufferViews": [
    {
      "buffer": 0,
      "byteLength": 12851640,
      "name": "floatBufferViews",
      "target": 34963
    },
    {
      "buffer": 0,
      "byteLength": 5511320,
      "byteOffset": 12851640,
      "byteStride": 8,
      "name": "floatBufferViews",
      "target": 34962
    },
    {
      "buffer": 0,
      "byteLength": 16533960,
      "byteOffset": 18362960,
      "byteStride": 12,
      "name": "floatBufferViews",
      "target": 34962
    }
  ],
  "buffers": [
    {
      "byteLength": 34896920,
      "uri": "scene.bin"
    }
  ],
  "extensionsUsed": [
    "KHR_materials_unlit"
  ],
  "images": [
    {
      "uri": "textures/Scene_-_Root_baseColor.jpeg"
    }
  ],
  "materials": [
    {
      "doubleSided": true,
      "extensions": {
        "KHR_materials_unlit": {}
      },
      "name": "Scene_-_Root",
      "pbrMetallicRoughness": {
        "baseColorTexture": {
          "index": 0
        },
        "metallicFactor": 0.0
      }
    }
  ],
  "meshes": [
    {
      "name": "Object_0",
      "primitives": [
        {
          "attributes": {
            "NORMAL": 1,
            "POSITION": 0,
            "TEXCOORD_0": 2
          },
          "indices": 3,
          "material": 0,
          "mode": 4
        }
      ]
    },
    {
      "name": "Object_1",
      "primitives": [
        {
          "attributes": {
            "NORMAL": 5,
            "POSITION": 4,
            "TEXCOORD_0": 6
          },
          "indices": 7,
          "material": 0,
          "mode": 4
        }
      ]
    },
    {
      "name": "Object_2",
      "primitives": [
        {
          "attributes": {
            "NORMAL": 9,
            "POSITION": 8,
            "TEXCOORD_0": 10
          },
          "indices": 11,
          "material": 0,
          "mode": 4
        }
      ]
    },
    {
      "name": "Object_3",
      "primitives": [
        {
          "attributes": {
            "NORMAL": 13,
            "POSITION": 12,
            "TEXCOORD_0": 14
          },
          "indices": 15,
          "material": 0,
          "mode": 4
        }
      ]
    },
    {
      "name": "Object_4",
      "primitives": [
        {
          "attributes": {
            "NORMAL": 17,
            "POSITION": 16,
            "TEXCOORD_0": 18
          },
          "indices": 19,
          "material": 0,
          "mode": 4
        }
      ]
    },
    {
      "name": "Object_5",
      "primitives": [
        {
          "attributes": {
            "NORMAL": 21,
            "POSITION": 20,
            "TEXCOORD_0": 22
          },
          "indices": 23,
          "material": 0,
          "mode": 4
        }
      ]
    },
    {
      "name": "Object_6",
      "primitives": [
        {
          "attributes": {
            "NORMAL": 25,
            "POSITION": 24,
            "TEXCOORD_0": 26
          },
          "indices": 27,
          "material": 0,
          "mode": 4
        }
      ]
    },
    {
      "name": "Object_7",
      "primitives": [
        {
          "attributes": {
            "NORMAL": 29,
            "POSITION": 28,
            "TEXCOORD_0": 30
          },
          "indices": 31,
          "material": 0,
          "mode": 4
        }
      ]
    },
    {
      "name": "Object_8",
      "primitives": [
        {
          "attributes": {
            "NORMAL": 33,
            "POSITION": 32,
            "TEXCOORD_0": 34
          },
          "indices": 35,
          "material": 0,
          "mode": 4
        }
      ]
    },
    {
      "name": "Object_9",
      "primitives": [
        {
          "attributes": {
            "NORMAL": 37,
            "POSITION": 36,
            "TEXCOORD_0": 38
          },
          "indices": 39,
          "material": 0,
          "mode": 4
        }
      ]
    },
    {
      "name": "Object_10",
      "primitives": [
        {
          "attributes": {
            "NORMAL": 41,
            "POSITION": 40,
            "TEXCOORD_0": 42
          },
          "indices": 43,
          "material": 0,
          "mode": 4
        }
      ]
    }
  ],
  "nodes": [
    {
      "children": [
        1
      ],
      "matrix": [
        0.07526485621929169,
        0.9971635937690735,
        2.2141479622407833e-16,
        0.0,
        0.0,
        2.220446049250313e-16,
        -1.0,
        0.0,
        -0.9971635937690735,
        0.07526485621929169,
        1.6712155263951908e-17,
        0.0,
        -0.42730581760406494,
        -0.324003666639328,
        -7.194326615319113e-17,
        1.0
      ],
      "name": "Sketchfab_model"
    },
    {
      "children": [
        2,
        3,
        4,
        5,
        6,
        7,
        8,
        9,
        10,
        11,
        12
      ],
      "name": "Samanta_03.obj.cleaner.materialmerger.gles"
    },
    {
      "mesh": 0,
      "name": "Object_2"
    },
    {
      "mesh": 1,
      "name": "Object_3"
    },
    {
      "mesh": 2,
      "name": "Object_4"
    },
    {
      "mesh": 3,
      "name": "Object_5"
    },
    {
      "mesh": 4,
      "name": "Object_6"
    },
    {
      "mesh": 5,
      "name": "Object_7"
    },
    {
      "mesh": 6,
      "name": "Object_8"
    },
    {
      "mesh": 7,
      "name": "Object_9"
    },
    {
      "mesh": 8,
      "name": "Object_10"
    },
    {
      "mesh": 9,
      "name": "Object_11"
    },
    {
      "mesh": 10,
      "name": "Object_12"
    }
  ],
  "samplers": [
    {
      "magFilter": 9729,
      "minFilter": 9987,
      "wrapS": 10497,
      "wrapT": 10497
    }
  ],
  "scene": 0,
  "scenes": [
    {
      "name": "Sketchfab_Scene",
      "nodes": [
        0
      ]
    }
  ],
  "textures": [
    {
      "sampler": 0,
      "source": 0
    }
  ]
}
